<svg t="1774010293990" class="icon" viewBox="0 0 1024 1024" version="1.1" xmlns="http://www.w3.org/2000/svg" p-id="16595" width="32" height="32"><path d="M509.6448 511.3856m-450.816 0a450.816 450.816 0 1 0 901.632 0 450.816 450.816 0 1 0-901.632 0Z" fill="#FF9552" p-id="16596"></path><path d="M277.6576 319.3344c-15.104 0-29.5424-0.7168-43.8272 0.1536-24.9344 1.5872-46.6944-28.5696-34.56-56.6272 4.7616-10.9568 14.4896-16.1792 26.112-16.384 23.808-0.4096 47.6672-0.5632 71.4752 0.1024 19.9168 0.5632 31.0272 9.3696 36.0448 28.8256 2.7648 10.8032 3.1232 22.272 4.5568 33.4336 1.2288 9.984 2.4576 19.968 3.6864 30.3616h442.7776c11.3152 0 22.1184 1.8432 31.488 8.7552 10.9056 8.0384 13.824 20.992 8.2944 37.1712-7.5776 22.0672-15.5136 44.032-23.04 66.1504-8.6528 25.4464-16.384 51.2-25.5488 76.4416-8.8064 24.2176-25.1904 37.5296-52.0192 37.376-107.8272-0.512-215.7056-0.2048-323.5328-0.2048h-9.6256c2.9696 18.0736 6.0416 35.4304 8.6528 52.8896 0.768 5.2224 4.096 4.7616 7.68 4.7616h118.2208c63.488 0 126.976-0.0512 190.4128 0.0512 6.3488 0 12.7488 0.4096 18.944 1.6384 9.3184 1.792 14.8992 8.0384 16.384 17.3056 2.9696 18.5344-5.12 37.3248-29.7984 37.2224-109.7216-0.4096-219.4432-0.5632-329.1648 0.1024-28.5184 0.2048-43.8272-16.7424-50.2272-41.9328-10.1888-40.1408-17.2032-81.0496-25.2416-121.7536-12.288-62.464-24.2688-124.9792-36.4032-187.4432-0.4608-2.56-1.024-5.0688-1.7408-8.3968zM674.816 815.3088c-26.9824 1.2288-61.3888-28.5184-60.0576-58.2656 1.536-33.5872 23.7056-59.2384 58.4704-59.8016 34.5088-0.512 61.2352 24.8832 61.9008 57.9584 0.5632 32-28.0064 60.0576-60.3136 60.1088zM407.6544 812.6976c-32.4608 0.0512-58.9312-25.7536-59.1872-57.7024-0.256-30.9248 26.4704-58.3168 57.1392-58.5728 33.6896-0.256 61.5936 25.9584 61.5424 57.9072-0.0512 32.256-26.624 58.3168-59.4944 58.368z" fill="#FFFFFF" p-id="16597"></path></svg>
